<svg width="540" height="964" viewBox="0 0 540 964" fill="none" xmlns="http://www.w3.org/2000/svg">
<path d="M-285.486 772.399C-138.213 654.825 86.2575 459.361 -132.482 377.728C-410.843 273.845 -781.074 556.915 -691.742 301.116" stroke="white"/>
<path d="M-227.545 739.564C-80.2722 621.989 144.199 426.525 -74.5405 344.893C-352.902 241.01 -723.133 524.079 -633.801 268.281" stroke="white"/>
<path d="M-170.342 705.459C-23.069 587.884 201.402 392.42 -17.3373 310.788C-295.698 206.904 -665.93 489.974 -576.598 234.176" stroke="white"/>
<path d="M-114.052 669.865C33.2203 552.291 257.691 356.826 38.952 275.194C-239.409 171.311 -609.641 454.381 -520.309 198.582" stroke="white"/>
<path d="M-58.927 632.494C88.3457 514.92 312.817 319.455 94.0774 237.823C-184.284 133.94 -554.515 417.01 -465.183 161.211" stroke="white"/>
<path d="M-5.33685 592.952C141.936 475.377 366.407 279.913 147.668 198.28C-130.694 94.3973 -500.925 377.467 -411.593 121.669" stroke="white"/>
<path d="M46.1421 550.693C193.415 433.118 417.886 237.654 199.146 156.022C-79.2146 52.1385 -449.446 335.208 -360.114 79.4098" stroke="white"/>
<path d="M94.5739 505.005C241.847 387.431 466.317 191.966 247.578 110.334C-30.7828 6.45074 -401.014 289.521 -311.682 33.722" stroke="white"/>
<path d="M138.799 455.828C286.072 338.253 510.543 142.789 291.804 61.1565C13.4428 -42.7267 -356.789 240.343 -267.457 -15.4554" stroke="white"/>
</svg>
