<svg width="919" height="964" viewBox="0 0 919 964" fill="none" xmlns="http://www.w3.org/2000/svg">
<path d="M978.74 -574.747C925.896 -393.859 854.705 -104.851 1080.59 -163.892C1368.05 -239.024 1508.09 -683.535 1582.14 -422.904" stroke="white"/>
<path d="M972.557 -508.436C919.713 -327.548 848.522 -38.5406 1074.41 -97.5808C1361.87 -172.714 1501.9 -617.224 1575.96 -356.593" stroke="white"/>
<path d="M958.922 -443.248C906.079 -262.36 834.887 26.6475 1060.77 -32.3927C1348.23 -107.526 1488.27 -552.036 1562.33 -291.405" stroke="white"/>
<path d="M938.127 -379.979C885.283 -199.091 814.091 89.9164 1039.98 30.8762C1327.44 -44.2566 1467.47 -488.767 1541.53 -228.136" stroke="white"/>
<path d="M911.22 -319.058C858.376 -138.17 787.184 150.837 1013.07 91.7969C1300.53 16.6641 1440.57 -427.847 1514.62 -167.216" stroke="white"/>
<path d="M879.663 -260.411C826.819 -79.5226 755.627 209.485 981.514 150.444C1268.97 75.3117 1409.01 -369.199 1483.07 -108.568" stroke="white"/>
<path d="M844.931 -203.585C792.087 -22.6971 720.896 266.31 946.783 207.27C1234.24 132.137 1374.28 -312.374 1448.33 -51.7425" stroke="white"/>
<path d="M808.29 -147.972C755.447 32.9161 684.255 321.923 910.142 262.883C1197.6 187.75 1337.64 -256.76 1411.69 3.8707" stroke="white"/>
<path d="M770.737 -92.9712C717.894 87.9169 646.702 376.924 872.589 317.884C1160.05 242.751 1300.08 -201.76 1374.14 58.8715" stroke="white"/>
<path d="M733.031 -38.0748C680.187 142.813 608.995 431.82 834.882 372.78C1122.34 297.647 1262.38 -146.863 1336.43 113.768" stroke="white"/>
<path d="M695.74 17.1045C642.896 197.993 571.704 487 797.591 427.96C1085.05 352.827 1225.09 -91.6839 1299.14 168.947" stroke="white"/>
<path d="M659.287 72.8411C606.443 253.729 535.251 542.736 761.138 483.696C1048.6 408.563 1188.63 -35.9473 1262.69 224.684" stroke="white"/>
<path d="M623.98 129.311C571.136 310.199 499.944 599.206 725.832 540.166C1013.29 465.033 1153.33 20.5223 1227.38 281.153" stroke="white"/>
<path d="M590.04 186.612C537.196 367.5 466.004 656.507 691.891 597.467C979.348 522.334 1119.39 77.8237 1193.44 338.455" stroke="white"/>
<path d="M557.386 245.13C504.542 426.018 433.35 715.025 659.237 655.985C946.695 580.852 1086.73 136.342 1160.79 396.973" stroke="white"/>
<path d="M525.918 303.825C473.074 484.713 401.883 773.721 627.77 714.68C915.227 639.548 1055.26 195.037 1129.32 455.668" stroke="white"/>
<path d="M495.302 362.969C442.458 543.857 371.266 832.864 597.153 773.824C884.61 698.691 1024.65 254.181 1098.7 514.812" stroke="white"/>
<path d="M465.659 422.608C412.816 603.496 341.624 892.503 567.511 833.463C854.968 758.33 995.005 313.819 1069.06 574.45" stroke="white"/>
<path d="M437.149 482.795C384.305 663.683 313.113 952.69 539.001 893.65C826.458 818.517 966.494 374.007 1040.55 634.638" stroke="white"/>
<path d="M409.973 543.596C357.129 724.484 285.937 1013.49 511.824 954.451C799.281 879.319 939.318 434.808 1013.38 695.439" stroke="white"/>
<path d="M384.4 605.09C331.557 785.978 260.365 1074.99 486.252 1015.94C773.709 940.812 913.746 496.301 987.804 756.932" stroke="white"/>
<path d="M360.802 667.368C307.959 848.256 236.767 1137.26 462.654 1078.22C750.111 1003.09 890.148 558.579 964.206 819.21" stroke="white"/>
<path d="M339.709 730.539C286.865 911.427 215.673 1200.43 441.561 1141.39C729.018 1066.26 869.054 621.75 943.112 882.381" stroke="white"/>
<path d="M321.905 794.717C269.061 975.605 197.87 1264.61 423.757 1205.57C711.214 1130.44 851.251 685.929 925.309 946.56" stroke="white"/>
<path d="M308.567 859.949C255.723 1040.84 184.531 1329.84 410.418 1270.8C697.875 1195.67 837.912 751.16 911.97 1011.79" stroke="white"/>
<path d="M300.676 925.615C247.832 1106.5 176.64 1395.51 402.527 1336.47C689.984 1261.34 830.021 816.826 904.079 1077.46" stroke="white"/>
</svg>
